<svg width="24.000000" height="24.000000" viewBox="0 0 24 24" fill="none" xmlns="http://www.w3.org/2000/svg" xmlns:xlink="http://www.w3.org/1999/xlink">
	<desc>
			Created with Pixso.
	</desc>
	<defs/>
	<rect id="vuesax/bold/profile-2user" width="24.000000" height="24.000000" fill="#FFFFFF" fill-opacity="0"/>
	<path id="Vector" d="M9 2C6.37988 2 4.25 4.13 4.25 6.75C4.25 9.32001 6.25977 11.4 8.87988 11.49C8.95996 11.48 9.04004 11.48 9.1001 11.49C9.12012 11.49 9.12988 11.49 9.1499 11.49C9.16016 11.49 9.16016 11.49 9.16992 11.49C11.73 11.4 13.7402 9.32001 13.75 6.75C13.75 4.13 11.6201 2 9 2Z" fill="#18333E" fill-opacity="1.000000" fill-rule="nonzero"/>
	<path id="Vector" d="M14.0801 14.15C11.29 12.29 6.73975 12.29 3.93018 14.15C2.66016 15 1.95996 16.15 1.95996 17.38C1.95996 18.61 2.66016 19.75 3.91992 20.59C5.31982 21.53 7.16016 22 9 22C10.8398 22 12.6802 21.53 14.0801 20.59C15.3398 19.74 16.04 18.6 16.04 17.36C16.0298 16.13 15.3398 14.99 14.0801 14.15Z" fill="#18333E" fill-opacity="1.000000" fill-rule="nonzero"/>
	<path id="Vector" d="M19.9897 7.34001C20.1499 9.28001 18.77 10.98 16.8599 11.21C16.8501 11.21 16.8501 11.21 16.8398 11.21L16.8101 11.21C16.75 11.21 16.6899 11.21 16.6396 11.23C15.6699 11.28 14.7798 10.97 14.1099 10.4C15.1396 9.48001 15.73 8.10001 15.6099 6.60001C15.54 5.79001 15.2598 5.05 14.8398 4.42001C15.2197 4.23001 15.6597 4.11002 16.1099 4.07001C18.0698 3.90001 19.8198 5.36002 19.9897 7.34001Z" fill="#18333E" fill-opacity="1.000000" fill-rule="nonzero"/>
	<path id="Vector" d="M21.9902 16.59C21.9102 17.56 21.29 18.4 20.25 18.97C19.25 19.52 17.9902 19.78 16.7402 19.75C17.4604 19.1 17.8804 18.29 17.9604 17.43C18.0601 16.19 17.4702 15 16.29 14.05C15.6201 13.52 14.8403 13.1 13.9902 12.79C16.2002 12.15 18.9805 12.58 20.6904 13.96C21.6104 14.7 22.0801 15.63 21.9902 16.59Z" fill="#18333E" fill-opacity="1.000000" fill-rule="nonzero"/>
	<g opacity="0.000000"/>
</svg>
