<svg width="20.000000" height="20.000000" viewBox="0 0 20 20" fill="none" xmlns="http://www.w3.org/2000/svg" xmlns:xlink="http://www.w3.org/1999/xlink">
	<desc>
			Created with Pixso.
	</desc>
	<defs/>
	<rect id="vuesax/bold/logout" width="20.000002" height="19.999998" transform="translate(20.000000 20.000000) rotate(-179.999985)" fill="#18333E" fill-opacity="0"/>
	<path id="Vector" d="M6 18.3334L8.1665 18.3334C10.8335 18.3334 12.5 16.6667 12.5 14L12.5 10.625L7.2915 10.625C6.9502 10.625 6.6665 10.3417 6.6665 10C6.6665 9.65839 6.9502 9.37503 7.2915 9.37503L12.5 9.37503L12.5 6.00003C12.5 3.33337 10.8335 1.66672 8.1665 1.66672L6.0083 1.66672C3.3418 1.66672 1.6748 3.33337 1.6748 6.00003L1.6748 14C1.6665 16.6667 3.3335 18.3334 6 18.3334Z" fill="#FF7F5C" fill-opacity="1.000000" fill-rule="nonzero"/>
	<path id="Vector" d="M16.1997 10.625L14.4746 12.35C14.3496 12.475 14.2915 12.6333 14.2915 12.7916C14.2915 12.95 14.3496 13.1166 14.4746 13.2333C14.7163 13.475 15.1167 13.475 15.3579 13.2333L18.1499 10.4416C18.3916 10.2 18.3916 9.79996 18.1499 9.55829L15.3579 6.76663C15.1167 6.52496 14.7163 6.52496 14.4746 6.76663C14.2329 7.0083 14.2329 7.40829 14.4746 7.64996L16.1997 9.37497L12.5 9.37497L12.5 10.625L16.1997 10.625Z" fill="#FF7F5C" fill-opacity="1.000000" fill-rule="nonzero"/>
	<g opacity="0.000000"/>
</svg>
