<svg width="24.000000" height="24.000000" viewBox="0 0 24 24" fill="none" xmlns="http://www.w3.org/2000/svg" xmlns:xlink="http://www.w3.org/1999/xlink">
	<desc>
			Created with Pixso.
	</desc>
	<defs/>
	<rect id="vuesax/bold/microscope" width="24.000000" height="24.000000" fill="#FFFFFF" fill-opacity="0"/>
	<g opacity="0.000000"/>
	<path id="Vector" d="M14.8403 10.9L20.5 7.11002C21.0703 6.73003 21.2202 5.95002 20.8403 5.39002L19.02 2.68002C18.6401 2.11002 17.8604 1.96002 17.3003 2.34003L11.6401 6.13002L14.8403 10.9Z" fill="#18333E" fill-opacity="1.000000" fill-rule="nonzero"/>
	<path id="Vector" d="M14.52 10.42L12.7603 11.6L10.0903 13.39L9.74023 13.62L9.58008 13.38L7.34033 10.04L7.18018 9.79997L11.96 6.59998L14.52 10.42Z" fill="#18333E" fill-opacity="1.000000" fill-rule="nonzero"/>
	<path id="Vector" d="M5.64014 16.02L9.59033 13.38L7.3501 10.04L3.3999 12.68C2.93994 12.99 2.82031 13.61 3.12988 14.07L4.26025 15.75C4.56006 16.21 5.18018 16.33 5.64014 16.02Z" fill="#18333E" fill-opacity="1.000000" fill-rule="nonzero"/>
	<path id="Vector" d="M16.5601 21.81C16.46 21.85 16.3501 21.88 16.25 21.88C15.96 21.88 15.6899 21.71 15.5601 21.43L11.8301 13.19L8.0498 21.44C7.91992 21.71 7.6499 21.88 7.35986 21.88C7.25977 21.88 7.1499 21.85 7.0498 21.81C6.67969 21.63 6.50977 21.19 6.67969 20.81L10.0898 13.39L12.7598 11.6L16.9297 20.82C17.1001 21.19 16.9297 21.64 16.5601 21.81Z" fill="#18333E" fill-opacity="1.000000" fill-rule="nonzero"/>
</svg>
