<svg width="24.000000" height="24.000000" viewBox="0 0 24 24" fill="none" xmlns="http://www.w3.org/2000/svg" xmlns:xlink="http://www.w3.org/1999/xlink">
	<desc>
			Created with Pixso.
	</desc>
	<defs/>
	<rect id="vuesax/bold/graph" width="24.000000" height="24.000000" fill="#FFFFFF" fill-opacity="0"/>
	<path id="Vector" d="M21.6699 6.95003C21.0303 4.78003 19.2202 2.97003 17.0503 2.33003C15.4004 1.85003 14.2603 1.89003 13.4702 2.48003C12.52 3.19003 12.4102 4.47003 12.4102 5.38003L12.4102 7.87003C12.4102 10.33 13.5303 11.58 15.73 11.58L18.6001 11.58C19.5 11.58 20.79 11.47 21.5 10.52C22.1104 9.74003 22.1602 8.60003 21.6699 6.95003Z" fill="#18333E" fill-opacity="1.000000" fill-rule="nonzero"/>
	<path id="Vector" d="M18.9097 13.36C18.6499 13.06 18.27 12.89 17.8799 12.89L14.2998 12.89C12.54 12.89 11.1099 11.46 11.1099 9.70003L11.1099 6.12003C11.1099 5.73003 10.9399 5.35003 10.6401 5.09003C10.3501 4.83003 9.94971 4.71003 9.56982 4.76003C7.21973 5.06003 5.06006 6.35003 3.6499 8.29003C2.22998 10.24 1.70996 12.62 2.15967 15C2.81006 18.44 5.56006 21.19 9.00977 21.84C9.56006 21.95 10.1099 22 10.6597 22C12.4697 22 14.2197 21.44 15.71 20.35C17.6499 18.94 18.9399 16.78 19.2397 14.43C19.29 14.04 19.1699 13.65 18.9097 13.36Z" fill="#18333E" fill-opacity="1.000000" fill-rule="nonzero"/>
	<g opacity="0.000000"/>
</svg>
