<svg width="18.997070" height="19.000000" viewBox="0 0 18.9971 19" fill="none" xmlns="http://www.w3.org/2000/svg" xmlns:xlink="http://www.w3.org/1999/xlink">
	<desc>
			Created with Pixso.
	</desc>
	<defs/>
	<path id="Vector" d="M9.00977 0.0427246C8.54932 0.194946 8.63867 0.109558 4.43213 4.30865C2.21924 6.51773 0.355469 8.41125 0.285156 8.5152C0.00292969 8.93475 -0.0791016 9.57333 0.0805664 10.056C0.322266 10.7726 0.894043 11.1958 1.71436 11.2626L2.00781 11.2886L2.01904 14.3182C2.02979 17.2884 2.03369 17.3515 2.10791 17.552C2.38623 18.2871 2.85059 18.7401 3.52979 18.9406C3.70459 18.9926 3.98291 19 5.51611 19C7.23145 19 7.30566 18.9963 7.4248 18.9258C7.49121 18.8849 7.57666 18.7995 7.61768 18.7327C7.68799 18.6139 7.69189 18.5396 7.69189 16.2526C7.69189 14.645 7.70654 13.8467 7.73291 13.7465C7.7959 13.5237 7.97021 13.2972 8.16699 13.1821L8.3418 13.0782L9.51465 13.0782L10.688 13.0782L10.8701 13.1895C11.0742 13.3158 11.2671 13.6017 11.3081 13.8282C11.3193 13.9061 11.3306 15.0088 11.3306 16.2823C11.3306 18.7884 11.3228 18.6918 11.5347 18.8886L11.6348 18.9814L13.4204 18.9926C14.6162 19 15.2734 18.9889 15.4033 18.9629C15.9155 18.8552 16.5098 18.4023 16.7437 17.9419C17.0034 17.4221 16.9888 17.6337 17.0034 14.2997L17.0146 11.2849L17.3188 11.2589C18.0654 11.1958 18.5552 10.8691 18.8638 10.2379C18.9937 9.96317 18.9971 9.95203 18.9971 9.49536C18.9971 9.03497 18.9971 9.02756 18.856 8.73425C18.7148 8.43723 18.7114 8.43353 14.6421 4.36435C10.5693 0.291473 10.5693 0.291473 10.2725 0.150391C9.99023 0.0167236 9.95312 0.00930786 9.56689 0.00186157C9.30322 -0.0055542 9.10645 0.00930786 9.00977 0.0427246Z" fill="#18333E" fill-opacity="1.000000" fill-rule="nonzero"/>
</svg>
