<svg width="24.000000" height="24.000000" viewBox="0 0 24 24" fill="none" xmlns="http://www.w3.org/2000/svg" xmlns:xlink="http://www.w3.org/1999/xlink">
	<desc>
			Created with Pixso.
	</desc>
	<defs/>
	<rect id="vuesax/bold/sms-edit" width="24.000000" height="24.000000" fill="#FFFFFF" fill-opacity="0"/>
	<g opacity="0.000000"/>
	<path id="Vector" d="M17 3L7 3C4 3 2 4.5 2 8L2 15C2 18.5 4 20 7 20L10.5698 20C11.1602 20 11.6401 19.48 11.5601 18.89C11.46 18.18 11.48 17.44 11.6299 16.68C12.1602 14.08 14.2998 12.01 16.9199 11.58C18.23 11.37 19.48 11.55 20.5801 12.03C21.25 12.32 22 11.86 22 11.13L22 8C22 4.5 20 3 17 3ZM17.4702 8.59L14.3398 11.09C13.6802 11.62 12.8398 11.88 12 11.88C11.1602 11.88 10.3101 11.62 9.66016 11.09L6.52979 8.59C6.20996 8.33 6.16016 7.86 6.41016 7.53C6.66992 7.21 7.14014 7.15 7.45996 7.41L10.5898 9.91C11.3501 10.52 12.6401 10.52 13.3999 9.91L16.5298 7.41C16.8501 7.15 17.3301 7.2 17.5801 7.53C17.8398 7.86 17.79 8.33 17.4702 8.59Z" fill="#18333E" fill-opacity="1.000000" fill-rule="nonzero"/>
	<path id="Vector" d="M18 13C15.2402 13 13 15.23 13 18C13 20.76 15.2402 23 18 23C20.77 23 23 20.76 23 18C23 15.23 20.77 13 18 13ZM20.0498 17.55L19.6802 17.91L17.5 20.1C17.3999 20.19 17.21 20.29 17.0698 20.31L16.0898 20.45C15.7402 20.5 15.4902 20.25 15.54 19.9L15.6802 18.92C15.7002 18.78 15.79 18.59 15.8901 18.49L18.0698 16.32L18.4302 15.95C18.6699 15.71 18.9399 15.55 19.2202 15.55C19.46 15.55 19.73 15.66 20.0298 15.95C20.7002 16.6 20.4902 17.11 20.0498 17.55Z" fill="#18333E" fill-opacity="1.000000" fill-rule="nonzero"/>
</svg>
