<svg width="24.000000" height="24.000000" viewBox="0 0 24 24" fill="none" xmlns="http://www.w3.org/2000/svg" xmlns:xlink="http://www.w3.org/1999/xlink">
	<desc>
			Created with Pixso.
	</desc>
	<defs/>
	<rect id="vuesax/bold/moon" width="24.000000" height="24.000000" fill="#FFFFFF" fill-opacity="0"/>
	<path id="Vector" d="M21.5303 15.93C21.3701 15.66 20.9204 15.24 19.8003 15.44C19.1802 15.55 18.5503 15.6 17.9204 15.57C15.5903 15.47 13.48 14.4 12.0103 12.75C10.71 11.3 9.91016 9.40999 9.90039 7.37C9.90039 6.23 10.1201 5.12999 10.5703 4.09C11.0103 3.08 10.7002 2.54999 10.48 2.33C10.25 2.09999 9.70996 1.78 8.65039 2.22C4.56006 3.93999 2.03027 8.03999 2.33008 12.43C2.63037 16.56 5.53027 20.09 9.37012 21.42C10.29 21.74 11.2603 21.93 12.2603 21.97C12.4204 21.98 12.5801 21.99 12.7402 21.99C16.0903 21.99 19.23 20.41 21.21 17.72C21.8804 16.79 21.7002 16.2 21.5303 15.93Z" fill="#18333E" fill-opacity="1.000000" fill-rule="nonzero"/>
	<g opacity="0.000000"/>
</svg>
