<svg width="24.000000" height="24.000000" viewBox="0 0 24 24" fill="none" xmlns="http://www.w3.org/2000/svg" xmlns:xlink="http://www.w3.org/1999/xlink">
	<desc>
			Created with Pixso.
	</desc>
	<defs/>
	<rect id="vuesax/bold/note-2" width="24.000000" height="24.000000" fill="#FFFFFF" fill-opacity="0"/>
	<path id="Vector" d="M12.6777 19.9571C12.9521 20.021 12.9775 20.3808 12.71 20.47L11.1299 20.99C7.15967 22.27 5.06982 21.2 3.77979 17.23L2.5 13.28C1.21973 9.31003 2.27979 7.21002 6.25 5.93002L6.77393 5.75647C7.17676 5.62308 7.56885 6.02716 7.45459 6.43585C7.39746 6.6384 7.34326 6.84979 7.29004 7.07001L6.31006 11.26C5.20996 15.97 6.81982 18.57 11.5298 19.69L12.6777 19.9571Z" fill="#18333E" fill-opacity="1.000000" fill-rule="nonzero"/>
	<path id="Vector" d="M17.1704 3.21002L15.5 2.82001C12.1602 2.03 10.1704 2.67999 9 5.10001C8.7002 5.71002 8.45996 6.45001 8.26025 7.30002L7.28027 11.49C6.30029 15.67 7.59033 17.73 11.7603 18.72L13.4399 19.12C14.02 19.26 14.5601 19.35 15.0601 19.39C18.1802 19.69 19.8403 18.23 20.6802 14.62L21.6602 10.44C22.6401 6.26001 21.3604 4.19 17.1704 3.21002ZM15.29 13.33C15.2002 13.67 14.9004 13.89 14.5601 13.89C14.5 13.89 14.4399 13.88 14.3701 13.87L11.46 13.13C11.0601 13.03 10.8203 12.62 10.9204 12.22C11.02 11.82 11.4302 11.58 11.8301 11.68L14.7402 12.42C15.1504 12.52 15.3901 12.93 15.29 13.33ZM18.2202 9.95001C18.1304 10.29 17.8301 10.51 17.4902 10.51C17.4302 10.51 17.3701 10.5 17.3003 10.49L12.4502 9.26001C12.0503 9.16 11.8101 8.75 11.9102 8.35001C12.0103 7.95001 12.4204 7.71002 12.8203 7.81L17.6704 9.04001C18.0801 9.13 18.3203 9.54001 18.2202 9.95001Z" fill="#18333E" fill-opacity="1.000000" fill-rule="nonzero"/>
	<g opacity="0.000000"/>
</svg>
