<svg width="24.000000" height="24.000000" viewBox="0 0 24 24" fill="none" xmlns="http://www.w3.org/2000/svg" xmlns:xlink="http://www.w3.org/1999/xlink">
	<desc>
			Created with Pixso.
	</desc>
	<defs/>
	<rect id="vuesax/bold/setting-2" width="24.000000" height="24.000000" fill="#FFFFFF" fill-opacity="0"/>
	<path id="Vector" d="M20.1001 9.22C18.29 9.22 17.5498 7.94 18.4502 6.37C18.9702 5.45999 18.6602 4.3 17.75 3.78L16.02 2.78999C15.23 2.31999 14.21 2.59999 13.7402 3.39L13.6299 3.58C12.73 5.14999 11.25 5.14999 10.3398 3.58L10.23 3.39C9.77979 2.59999 8.75977 2.31999 7.97021 2.78999L6.24023 3.78C5.33008 4.3 5.02002 5.47 5.54004 6.38C6.4502 7.94 5.70996 9.22 3.8999 9.22C2.85986 9.22 2 10.07 2 11.12L2 12.88C2 13.92 2.8501 14.78 3.8999 14.78C5.70996 14.78 6.4502 16.06 5.54004 17.63C5.02002 18.54 5.33008 19.7 6.24023 20.22L7.97021 21.21C8.75977 21.68 9.77979 21.4 10.25 20.61L10.3599 20.42C11.2598 18.85 12.7402 18.85 13.6499 20.42L13.7598 20.61C14.23 21.4 15.25 21.68 16.04 21.21L17.77 20.22C18.6802 19.7 18.9902 18.53 18.4702 17.63C17.5601 16.06 18.2998 14.78 20.1099 14.78C21.1499 14.78 22.0098 13.93 22.0098 12.88L22.0098 11.12C22 10.08 21.1499 9.22 20.1001 9.22ZM12 15.25C10.21 15.25 8.75 13.79 8.75 12C8.75 10.21 10.21 8.75 12 8.75C13.79 8.75 15.25 10.21 15.25 12C15.25 13.79 13.79 15.25 12 15.25Z" fill="#18333E" fill-opacity="1.000000" fill-rule="nonzero"/>
	<g opacity="0.000000"/>
</svg>
