<svg width="24.000000" height="24.000000" viewBox="0 0 24 24" fill="none" xmlns="http://www.w3.org/2000/svg" xmlns:xlink="http://www.w3.org/1999/xlink">
	<desc>
			Created with Pixso.
	</desc>
	<defs/>
	<path id="Vector" d="M20.6201 8.45001C19.5703 3.83002 15.54 1.75 12 1.75C12 1.75 12 1.75 11.9902 1.75C8.45996 1.75 4.41992 3.82001 3.37012 8.44C2.2002 13.6 5.35986 17.97 8.22021 20.72C9.28027 21.74 10.6401 22.25 12 22.25C13.3599 22.25 14.7202 21.74 15.77 20.72C18.6299 17.97 21.79 13.61 20.6201 8.45001ZM12 13.46C10.2603 13.46 8.8501 12.05 8.8501 10.31C8.8501 8.57001 10.2603 7.15997 12 7.15997C13.7402 7.15997 15.1499 8.57001 15.1499 10.31C15.1499 12.05 13.7402 13.46 12 13.46Z" fill="#B4BCC4" fill-opacity="1.000000" fill-rule="nonzero"/>
	<g opacity="0.000000"/>
	<g opacity="0.000000"/>
</svg>
