<svg width="26px" height="26px" viewBox="0 0 35.9985 35.8924" fill="none" xmlns="http://www.w3.org/2000/svg" xmlns:xlink="http://www.w3.org/1999/xlink">
	<desc>
			Created with Pixso.
	</desc>
	<defs>
		<filter id="filter_3_87_dd" x="0.000000" y="0.000000" width="35.998535" height="35.892372" filterUnits="userSpaceOnUse" color-interpolation-filters="sRGB">
			<feFlood flood-opacity="0" result="BackgroundImageFix"/>
			<feColorMatrix in="SourceAlpha" type="matrix" values="0 0 0 0 0 0 0 0 0 0 0 0 0 0 0 0 0 0 127 0" result="hardAlpha"/>
			<feOffset dx="0" dy="5"/>
			<feGaussianBlur stdDeviation="3.33333"/>
			<feComposite in2="hardAlpha" operator="out" k2="-1" k3="1"/>
			<feColorMatrix type="matrix" values="0 0 0 0 0.99608 0 0 0 0 0.77647 0 0 0 0 0.36078 0 0 0 0.4 0"/>
			<feBlend mode="normal" in2="BackgroundImageFix" result="effect_dropShadow_1"/>
			<feBlend mode="normal" in="SourceGraphic" in2="effect_dropShadow_1" result="shape"/>
		</filter>
	</defs>
	<g filter="url(#filter_3_87_dd)">
		<path id="Vector" d="M19.3896 6.14875L20.7993 8.96875C20.9893 9.35875 21.4995 9.72875 21.9297 9.80875L24.4795 10.2288C26.1094 10.4988 26.4893 11.6788 25.3193 12.8588L23.3296 14.8488C22.9995 15.1788 22.8096 15.8288 22.9194 16.2988L23.4893 18.7588C23.9395 20.6988 22.8994 21.4588 21.1895 20.4388L18.7993 19.0188C18.3696 18.7588 17.6494 18.7588 17.2192 19.0188L14.8296 20.4388C13.1196 21.4488 12.0796 20.6988 12.5293 18.7588L13.0996 16.2988C13.1895 15.8188 12.9995 15.1688 12.6694 14.8388L10.6797 12.8488C9.50928 11.6788 9.88965 10.4988 11.5195 10.2188L14.0693 9.79875C14.4995 9.72875 15.0093 9.34875 15.1992 8.95876L16.6094 6.13875C17.3794 4.61875 18.6196 4.61875 19.3896 6.14875Z" fill="#FEC65C" fill-opacity="1.000000" fill-rule="nonzero"/>
	</g>
</svg>
