<svg width="24.000000" height="24.000000" viewBox="0 0 24 24" fill="none" xmlns="http://www.w3.org/2000/svg" xmlns:xlink="http://www.w3.org/1999/xlink">
	<desc>
			Created with Pixso.
	</desc>
	<defs/>
	<path id="Vector" d="M20.02 11.01C20.02 15.9861 15.9863 20.02 11.0098 20.02C6.03369 20.02 2 15.9861 2 11.01C2 6.03394 6.03369 2 11.0098 2C15.9863 2 20.02 6.03394 20.02 11.01Z" fill="#18333E" fill-opacity="1.000000" fill-rule="evenodd"/>
	<path id="Vector" d="M21.9902 18.95C21.6602 18.34 20.96 18 20.02 18C19.3101 18 18.7002 18.29 18.3398 18.79C17.98 19.29 17.8999 19.96 18.1201 20.63C18.5503 21.93 19.3003 22.22 19.71 22.27C19.77 22.28 19.8301 22.28 19.8999 22.28C20.3398 22.28 21.02 22.09 21.6802 21.1C22.21 20.33 22.3101 19.56 21.9902 18.95Z" fill="#18333E" fill-opacity="1.000000" fill-rule="nonzero"/>
	<g opacity="0.000000"/>
</svg>
