<svg width="72.205566" height="64.000000" viewBox="0 0 72.2056 64" fill="none" xmlns="http://www.w3.org/2000/svg" xmlns:xlink="http://www.w3.org/1999/xlink">
	<desc>
			Created with Pixso.
	</desc>
	<defs/>
	<path id="Vector" d="M37.355 0.052002C37.2832 0.0844727 37.1792 0.162354 37.1206 0.227234C37.062 0.298645 34.8345 3.82275 32.1709 8.07379C28.5171 13.8954 27.3252 15.8555 27.3057 16.0307C27.2471 16.5889 27.918 16.9329 28.3413 16.5694C28.3999 16.5175 30.4907 13.2075 32.998 9.20959C35.499 5.21167 37.5698 1.94067 37.5894 1.94067C37.6221 1.94067 40.9888 7.28204 47.6777 17.9713C48.0488 18.5619 48.8564 19.8469 49.4688 20.8269C50.0806 21.8069 51.1099 23.4424 51.7417 24.4614C52.3799 25.4803 53.1157 26.6486 53.376 27.0574C53.6367 27.4663 54.3726 28.6345 55.0107 29.6535C57.2773 33.275 58.4106 35.0857 58.8989 35.8646C59.1724 36.2994 59.4004 36.6693 59.4004 36.6888C59.4004 36.7147 53.8188 36.7277 46.9937 36.7277L34.5869 36.7277L34.5869 35.0598L34.5869 33.3918L34.8018 33.593C35.3359 34.1057 36.2412 34.5211 37.1597 34.6833C37.876 34.8066 38.2539 34.8066 38.4883 34.6833C38.8008 34.5276 38.853 34.1252 38.6118 33.8396C38.4814 33.6968 38.397 33.6644 38.0063 33.6449C36.1177 33.5216 35.0103 32.6714 34.6782 31.0813C34.626 30.8217 34.5938 30.5945 34.6133 30.5815C34.626 30.5621 34.8149 30.6919 35.0234 30.8607C35.7461 31.4448 36.9575 31.8601 37.98 31.8601C38.3447 31.8601 38.436 31.8342 38.5859 31.6979C38.9438 31.3734 38.7095 30.7633 38.2212 30.7503C36.6777 30.7179 35.4531 30.0753 34.9712 29.0499C34.7563 28.5826 34.5869 27.8882 34.5869 27.4209L34.5869 27.1028L34.9712 27.4922C35.6289 28.1672 36.749 28.8098 37.2573 28.8098C37.5957 28.8098 37.8369 28.4918 37.7783 28.0958C37.7524 27.9141 37.5176 27.7324 37.166 27.6221C36.3521 27.3625 35.5508 26.6356 35.1079 25.7399C34.8149 25.1494 34.6782 24.5847 34.6133 23.715C34.5742 23.2347 34.5415 23.1115 34.4175 22.9881C34.2026 22.7739 33.7534 22.7805 33.5449 23.0011C33.4146 23.1374 33.3887 23.2607 33.3433 23.8254C33.2847 24.6755 33.1997 25.0195 32.8872 25.6685C32.5679 26.3435 32.0601 26.8627 31.4282 27.1678C31.1807 27.2846 30.9072 27.382 30.8228 27.382C30.5947 27.382 30.2886 27.7194 30.2886 27.9661C30.2886 28.2192 30.5947 28.5502 30.8291 28.5502C31.2852 28.5502 32.3599 28.0115 32.9067 27.5117C33.1411 27.3041 33.3496 27.1418 33.3691 27.1613C33.4214 27.2197 33.3496 27.9531 33.252 28.3555C32.9067 29.7443 31.9038 30.5231 30.2236 30.6919C29.4355 30.7763 29.3965 30.7892 29.2725 31.0229C29.1426 31.276 29.2075 31.5551 29.4224 31.7303C29.9434 32.1392 32.1709 31.5616 33.0762 30.7892L33.3496 30.5491L33.3496 30.7374C33.3496 31.3539 32.9067 32.3015 32.4185 32.7428C31.8584 33.2426 30.8877 33.6125 30.1064 33.6125C29.9175 33.6125 29.6636 33.6514 29.5464 33.7033C29.123 33.8785 29.0967 34.4821 29.5073 34.7028C29.7222 34.8196 30.5425 34.7612 31.2329 34.5925C31.8452 34.4367 32.7114 34.0214 33.0825 33.6968C33.3887 33.4437 33.4277 33.4762 33.3887 33.937C33.3755 34.0992 33.3628 34.7936 33.356 35.4751L33.3496 36.7277L28.335 36.7277L23.3198 36.7277L23.3198 34.5471L23.3198 32.3663L23.626 32.6389C23.9844 32.9504 24.8247 33.3723 25.3716 33.5151C25.9316 33.6644 26.9346 33.7163 27.1235 33.6125C27.4556 33.4373 27.5078 33.0413 27.2344 32.7623C27.0649 32.6 26.9932 32.574 26.6611 32.574C25.7886 32.5676 24.8311 32.2236 24.2515 31.7043C23.8735 31.3604 23.5547 30.8087 23.4243 30.2505C23.333 29.8482 23.3594 29.7573 23.522 29.952C23.6523 30.1078 24.1211 30.4193 24.5576 30.6335C25.4043 31.0489 26.9409 31.2371 27.2275 30.9515C27.501 30.679 27.4424 30.2505 27.1172 30.0883C27.019 30.0364 26.687 29.978 26.3809 29.9585C25.1499 29.8741 24.1538 29.2836 23.6846 28.3685C23.5156 28.0309 23.3198 27.3495 23.3198 27.0704C23.3198 26.9276 23.3394 26.9341 23.6328 27.1873C24.3164 27.7973 25.5342 28.2256 26.5635 28.2256C27.0063 28.2256 27.1172 28.2062 27.2275 28.0958C27.4033 27.9206 27.4492 27.6805 27.3447 27.4728C27.2275 27.2262 27.0063 27.1223 26.5698 27.1223C26.0815 27.1223 25.2871 26.9147 24.8115 26.6616C24.3555 26.4214 23.9194 25.9671 23.6846 25.5128C23.5156 25.1753 23.3198 24.4938 23.3198 24.2148C23.3198 24.072 23.3394 24.0785 23.626 24.3316C24.0234 24.6755 24.8442 25.0779 25.4951 25.2402C25.9902 25.3635 26.9019 25.4154 27.1299 25.3311C27.293 25.2662 27.436 24.9286 27.3906 24.721C27.3188 24.3965 27.1562 24.3186 26.4722 24.2602C24.792 24.1174 23.75 23.3191 23.418 21.9172C23.3657 21.6901 23.3198 21.437 23.3198 21.3591C23.3198 21.2163 23.3394 21.2228 23.6133 21.463C24.2905 22.0535 25.3262 22.4429 26.3877 22.4949C27.0322 22.5273 27.0908 22.5208 27.2148 22.3975C27.4033 22.2093 27.4492 21.9756 27.3447 21.7615C27.2275 21.5149 27.0063 21.411 26.5698 21.411C26.1138 21.411 25.3262 21.2163 24.8833 20.9891C23.8931 20.4894 23.3267 19.451 23.3198 18.14L23.3198 17.6922L23.8281 18.179C24.668 18.9967 25.9185 19.7041 26.6416 19.769C26.9673 19.8015 27.1953 19.6587 27.2666 19.3666C27.3516 19.0421 27.1758 18.8734 26.4658 18.5813C25.606 18.2374 25.0591 17.8804 24.499 17.2898C23.7891 16.5435 23.3198 15.4077 23.3198 14.4341C23.3198 14.1031 23.1899 13.7916 23.0269 13.7267C22.7729 13.6294 22.4346 13.6877 22.2778 13.85C22.1543 13.9863 22.1216 14.1096 22.0825 14.6094C22.0308 15.2908 21.9458 15.6218 21.7178 16.1411C21.2231 17.2573 20.1812 18.1465 18.7808 18.6527C18.5332 18.7436 18.2988 18.8669 18.2598 18.9253C18.1162 19.1135 18.1553 19.4899 18.3379 19.6587C18.4746 19.7885 18.5396 19.8015 18.8262 19.769C19.2173 19.7236 20.1938 19.2758 20.7866 18.8734C21.0146 18.7241 21.3989 18.3996 21.6465 18.153C21.8872 17.9128 22.1021 17.7117 22.1284 17.7117C22.1934 17.7117 22.0825 18.7825 21.9785 19.1849C21.7764 19.9702 21.3013 20.5673 20.5977 20.9437C20.1157 21.1968 19.3213 21.411 18.8457 21.411C18.4683 21.411 18.1489 21.5344 18.084 21.7031C17.9927 21.9432 18.0449 22.2353 18.2075 22.3845C18.3574 22.5208 18.4028 22.5273 19.002 22.4949C20.0571 22.4365 20.8389 22.1769 21.6006 21.6317L22.0825 21.2877L22.0825 21.5019C22.0825 22.1119 21.5879 23.0854 21.0732 23.4879C20.4937 23.9487 19.5688 24.2667 18.8262 24.2667C18.4683 24.2667 18.1489 24.39 18.084 24.5587C17.999 24.7924 18.0449 25.0909 18.1943 25.2272C18.3247 25.3441 18.4224 25.37 18.8198 25.37C19.8096 25.37 20.8125 25.052 21.6006 24.4874L22.0825 24.1434L22.0825 24.3575C22.0825 24.9871 21.5488 26.019 21.0278 26.389C20.3892 26.8368 19.5493 27.1223 18.8262 27.1223C18.4683 27.1223 18.1489 27.2457 18.084 27.4144C17.999 27.648 18.0449 27.9466 18.1943 28.0829C18.3247 28.2062 18.4224 28.2256 18.8652 28.2256C19.8228 28.2256 20.8975 27.8687 21.6787 27.2911L22.0825 26.9926L22.0825 27.2132C22.0825 27.5767 21.835 28.2516 21.5552 28.6735C21.0474 29.4328 19.9204 29.9715 18.8394 29.978C18.4683 29.978 18.1489 30.1013 18.084 30.27C17.999 30.5037 18.0449 30.8022 18.1943 30.9385C18.3247 31.0618 18.4224 31.0813 18.8652 31.0813C19.8423 31.0813 21.021 30.6854 21.7568 30.1013L22.0894 29.8417L22.0435 30.0883C21.8154 31.3279 20.917 32.1911 19.5688 32.4767C19.3213 32.5286 18.9565 32.574 18.7549 32.574C18.4551 32.574 18.3574 32.6065 18.2139 32.7363C17.9731 32.9634 17.9731 33.3528 18.2271 33.5475C18.3901 33.6838 18.4551 33.6904 19.0215 33.6579C19.3604 33.6384 19.8164 33.5735 20.0312 33.5151C20.5654 33.3788 21.3271 33.0089 21.731 32.6973C21.9131 32.561 22.0762 32.4442 22.0894 32.4442C22.1152 32.4442 22.0825 36.6823 22.0566 36.7147C22.0435 36.7213 20.6304 36.7213 18.9043 36.7147L15.772 36.6953L16.6445 35.2999C17.3545 34.1771 17.5239 33.8591 17.5239 33.6709C17.5239 33.1841 17.0156 32.8856 16.5859 33.1192C16.3057 33.2685 13.9873 36.9678 13.9546 37.3183C13.9224 37.6169 14.02 37.7986 14.2676 37.9284C14.4365 38.0128 17.042 38.0258 37.6738 38.0128L60.8984 37.9933L61.0742 37.8181C61.4194 37.4741 61.3672 37.3248 60.3188 35.6569C59.394 34.1836 58.0913 32.1068 56.1504 29.0045C55.6035 28.1283 54.8677 26.9601 54.5161 26.4084C54.1641 25.8568 53.3564 24.5717 52.7251 23.5528C39.8491 2.99207 38.0386 0.136414 37.8306 0.0650024C37.5957 -0.0193481 37.5371 -0.0193481 37.355 0.052002Z" fill="#18333E" fill-opacity="1.000000" fill-rule="nonzero"/>
	<path id="Vector" d="M40.1504 11.3134C40.0303 11.4291 38.4893 13.2053 37.0244 14.9364C36.6187 15.4126 36.27 15.863 36.2446 15.9274C36.1558 16.1848 36.3203 16.4487 36.7769 16.764C37.0244 16.9377 37.2207 17.0922 37.2207 17.1179C37.2207 17.1437 36.5679 17.8322 35.769 18.6431C34.9761 19.4539 34.2852 20.1875 34.2407 20.2712C34.0884 20.5672 34.2852 21.0177 34.5894 21.0499C34.9761 21.0949 35.0142 21.0627 36.7959 19.2609C37.7661 18.2827 38.6035 17.3947 38.6538 17.2981C38.8506 16.9249 38.6729 16.6803 37.7915 16.0883L37.6396 15.9853L37.9819 15.567C38.1719 15.3353 38.6289 14.8012 38.9966 14.3829C41.019 12.0598 41.0254 12.0469 41.0254 11.738C41.0254 11.3326 40.4487 11.0559 40.1504 11.3134Z" fill="#18333E" fill-opacity="1.000000" fill-rule="nonzero"/>
	<path id="Vector" d="M14.7607 40.7939C13.9888 40.9195 13.1533 41.3402 12.603 41.8802C11.9004 42.571 11.5591 43.3246 11.4956 44.3419C11.3755 46.2634 12.5649 47.8396 14.4824 48.3168C15.0073 48.4424 16.1782 48.4424 16.7158 48.3105C18.1777 47.9589 19.2979 46.8348 19.6016 45.4282C20.0444 43.3371 18.8359 41.403 16.7476 40.8755C16.2856 40.7562 15.2417 40.7122 14.7607 40.7939ZM16.4185 42.3575C17.6714 42.7971 18.2788 44.3607 17.7031 45.6417C16.9058 47.4 14.2734 47.3937 13.457 45.6354C13.2925 45.2838 13.2739 45.1771 13.2803 44.6119C13.2803 43.7955 13.4321 43.3999 13.9062 42.9101C14.4253 42.3889 15.0327 42.1691 15.8047 42.2382C16.0137 42.257 16.292 42.3073 16.4185 42.3575Z" fill="#18333E" fill-opacity="1.000000" fill-rule="nonzero"/>
	<path id="Vector" d="M38.5244 40.7843L37.689 40.8099L37.689 43.0887L37.689 45.374L36.917 44.4175C36.4961 43.8976 35.6738 42.8705 35.0835 42.1323L34.0225 40.8035L33.2812 40.8035L32.5469 40.8035L32.5781 44.5395C32.5972 46.6 32.6099 48.3076 32.6099 48.3461C32.6035 48.3846 32.9175 48.4103 33.4194 48.4103C33.8716 48.4103 34.2358 48.3975 34.2358 48.3782C34.2358 48.3589 34.2358 47.3768 34.2422 46.1957C34.2422 45.0081 34.2671 44.0067 34.2925 43.9618C34.3174 43.9169 35.0269 44.7449 36.1572 46.1507L37.9844 48.4103L38.6812 48.4103L39.3843 48.4103L39.3843 44.5716C39.3843 42.4661 39.3784 40.7457 39.3721 40.7522C39.3594 40.7586 38.9766 40.7778 38.5244 40.7843Z" fill="#18333E" fill-opacity="1.000000" fill-rule="nonzero"/>
	<path id="Vector" d="M41.8462 41.4948L41.8462 42.2373L43.0454 42.2179L44.2446 42.1985L44.2446 45.3044C44.2446 48.0164 44.2573 48.4038 44.3394 48.4038C44.3896 48.4103 44.7812 48.4103 45.2104 48.4103L45.9805 48.4103L45.999 45.3109L46.0117 42.205L47.2109 42.205L48.4102 42.205L48.4102 41.4948L48.4102 40.7844L45.1284 40.7715L41.8462 40.7521L41.8462 41.4948Z" fill="#18333E" fill-opacity="1.000000" fill-rule="nonzero"/>
	<path id="Vector" d="M0.0390625 42.5423C0.0649414 43.5311 0.0844727 45.2565 0.0844727 46.3746L0.0844727 48.4103L0.896973 48.4103L1.70947 48.4103L1.72217 46.2776C1.72217 45.1014 1.729 44.1062 1.72217 44.0545C1.71582 43.8994 1.85205 44.0933 2.64502 45.4052C3.06738 46.0967 3.54199 46.8787 3.70459 47.1307L3.99072 47.6025L4.3999 47.6025L4.80957 47.6025L5.91406 45.7606L7.01904 43.9124L7.05811 45.1855C7.08398 45.8899 7.10352 46.8916 7.10352 47.415L7.10352 48.3715L7.91602 48.3909C8.36426 48.4038 8.73486 48.3909 8.74805 48.3651C8.75439 48.3327 8.75439 46.6137 8.74121 44.5328L8.72852 40.7521L7.9873 40.7521L7.24658 40.7521L6.34961 42.2515C4.32178 45.6637 4.43262 45.4892 4.34814 45.36C4.30225 45.2953 3.65918 44.2355 2.91797 42.9947L1.56641 40.7521L0.786621 40.7521L0 40.7521L0.0390625 42.5423Z" fill="#18333E" fill-opacity="1.000000" fill-rule="nonzero"/>
	<path id="Vector" d="M22.4272 43.2399C22.4272 45.1337 22.4526 45.8397 22.5166 46.1763C22.7212 47.1661 23.2642 47.9183 24.0503 48.301C24.6572 48.598 25.0474 48.6838 25.8267 48.6838C27.3413 48.6838 28.332 48.1493 28.8813 47.0209C29.2329 46.3016 29.2646 45.9981 29.2646 43.2399L29.2646 40.7521L28.4087 40.7521L27.5459 40.7521L27.5269 43.3058C27.5073 45.8199 27.5073 45.8727 27.3604 46.196C27.041 46.9088 26.5425 47.1924 25.7246 47.1397C24.9707 47.0869 24.5679 46.7833 24.3062 46.0641C24.1909 45.7606 24.1846 45.5428 24.2036 43.2399L24.2231 40.7521L23.3218 40.7521L22.4272 40.7521L22.4272 43.2399Z" fill="#18333E" fill-opacity="1.000000" fill-rule="nonzero"/>
	<path id="Vector" d="M52.6362 41.289C52.5063 41.5801 52.2925 42.0522 52.1694 42.3368C52.0396 42.6214 51.3911 44.0897 50.7168 45.6031C50.0425 47.1167 49.498 48.3585 49.5044 48.3715C49.5107 48.3779 49.9194 48.3909 50.4121 48.3973L51.3071 48.4103L51.6377 47.5889L51.9683 46.7674L53.7515 46.7674L55.5342 46.7674L55.8647 47.5824L56.1958 48.3909L56.98 48.3909C57.4146 48.3909 57.8423 48.3909 57.9268 48.3844C58.0693 48.3844 58.0112 48.2421 56.9023 45.7455C56.2539 44.2966 55.4888 42.5826 55.21 41.9358L54.6914 40.7586L53.7837 40.7521L52.876 40.7521L52.6362 41.289ZM54.5161 44.3225L54.9702 45.4091L53.7773 45.4091C53.1226 45.4091 52.584 45.3962 52.584 45.3832C52.584 45.3574 53.356 43.4881 53.6538 42.7896L53.7642 42.5374L53.9136 42.8866C53.9912 43.0806 54.2637 43.7274 54.5161 44.3225Z" fill="#18333E" fill-opacity="1.000000" fill-rule="nonzero"/>
	<path id="Vector" d="M60.2002 44.578L60.2358 48.4103L60.9473 48.4038C61.3413 48.3973 61.7002 48.3909 61.7412 48.3909C61.7944 48.3909 61.812 47.5817 61.812 44.5715L61.812 40.7521L60.9883 40.7521L60.1709 40.7521L60.2002 44.578Z" fill="#18333E" fill-opacity="1.000000" fill-rule="nonzero"/>
	<path id="Vector" d="M65.0942 44.5651L65.0942 48.378L65.812 48.3844C66.21 48.3909 66.6079 48.3909 66.6992 48.3973L66.8623 48.4038L66.8623 46.1678C66.8555 44.9334 66.8818 43.9124 66.9077 43.8994C66.9341 43.88 67.8081 44.8882 68.8457 46.1354L70.7373 48.3973L71.4683 48.4038L72.2056 48.4103L72.2056 44.578L72.2056 40.7521L71.3247 40.7521L70.4438 40.7521L70.4307 43.0399L70.4111 45.3276L69.6284 44.3906C69.1978 43.8736 68.6826 43.2532 68.4868 43.014C68.291 42.775 67.8213 42.2127 67.4429 41.7538C67.0645 41.3015 66.7319 40.8879 66.7056 40.8427C66.6665 40.7715 66.4707 40.7521 65.877 40.7521L65.0942 40.7521L65.0942 44.5651Z" fill="#18333E" fill-opacity="1.000000" fill-rule="nonzero"/>
	<path id="Vector" d="M35.646 53.1C34.9106 53.252 34.2974 53.7342 34.0679 54.3419C33.6699 55.3723 34.0679 56.449 35.0186 56.9642C35.3628 57.1492 35.4302 57.1624 36.125 57.1624C36.8198 57.1624 36.8936 57.1492 37.2715 56.9642L37.6763 56.7594L37.6963 55.9536L37.7168 55.1477L37.4062 55.1477L37.103 55.1477L37.103 55.8149L37.103 56.4754L36.8872 56.5679C36.0303 56.9114 35.0527 56.6009 34.668 55.8611C34.3311 55.2137 34.4658 54.4872 35.0122 54.005C35.6191 53.47 36.4619 53.4105 37.1367 53.8663L37.3862 54.0314L37.5615 53.8531L37.7437 53.6813L37.5142 53.4897C37.103 53.1529 36.2397 52.9745 35.646 53.1Z" fill="#18333E" fill-opacity="1.000000" fill-rule="nonzero"/>
	<path id="Vector" d="M43.0518 53.0959C42.3872 53.2266 41.7715 53.6513 41.481 54.1741C41.2803 54.5401 41.2383 55.3831 41.3906 55.8275C41.709 56.7292 42.7954 57.2978 43.896 57.1344C44.3042 57.0756 44.8716 56.8338 45.0308 56.6573C45.1143 56.5659 45.1001 56.5267 44.9478 56.3829L44.7749 56.2195L44.498 56.3895C43.4463 57.0494 42.0415 56.4613 41.875 55.2981C41.7715 54.5923 42.2695 53.8474 42.9756 53.6513C43.5708 53.488 44.0347 53.5468 44.5117 53.8539L44.7749 54.0173L44.9551 53.8539L45.1279 53.6906L44.9688 53.5272C44.6294 53.1808 43.6885 52.9717 43.0518 53.0959Z" fill="#18333E" fill-opacity="1.000000" fill-rule="nonzero"/>
	<path id="Vector" d="M13.9487 55.1144L13.9487 57.1624L14.2148 57.1425L14.4751 57.1227L14.4937 56.2111L14.5122 55.306L15.5898 55.306L16.6733 55.306L16.6733 56.2308L16.6733 57.1558L16.9521 57.1558L17.231 57.1558L17.231 55.1078L17.231 53.0598L16.9521 53.0598L16.6733 53.0598L16.6733 53.9451L16.6733 54.8237L15.5898 54.8369L14.5059 54.8501L14.5059 53.9583L14.5059 53.0598L14.2275 53.0598L13.9487 53.0598L13.9487 55.1144Z" fill="#18333E" fill-opacity="1.000000" fill-rule="nonzero"/>
	<path id="Vector" d="M19.1636 55.088L19.1909 57.1227L19.583 57.1425L19.9658 57.1624L19.9658 55.1144L19.9658 53.0598L19.5557 53.0598L19.1455 53.0598L19.1636 55.088Z" fill="#18333E" fill-opacity="1.000000" fill-rule="nonzero"/>
	<path id="Vector" d="M21.6201 55.0946L21.6401 57.1229L21.9253 57.1426L22.2036 57.1624L22.2036 56.6158L22.2036 56.0626L22.5552 55.7202C22.7471 55.5292 22.9194 55.3777 22.9463 55.3777C22.9658 55.3777 23.3374 55.7795 23.7617 56.2668L24.5371 57.1558L24.8687 57.1558C25.0479 57.1558 25.1802 57.1295 25.1606 57.1031C25.1475 57.0767 24.7295 56.5631 24.2324 55.9705L23.3374 54.897L24.1992 54.0015L25.0679 53.1059L24.7427 53.0861L24.4248 53.0598L23.3174 54.2056L22.2104 55.3448L22.2036 54.2056L22.2036 53.0729L21.9053 53.0729L21.6069 53.0729L21.6201 55.0946Z" fill="#18333E" fill-opacity="1.000000" fill-rule="nonzero"/>
	<path id="Vector" d="M26.542 55.088L26.5601 57.1227L26.8213 57.1425L27.0767 57.1624L27.0767 55.1144L27.0767 53.0598L26.8032 53.0598L26.5298 53.0598L26.542 55.088Z" fill="#18333E" fill-opacity="1.000000" fill-rule="nonzero"/>
	<path id="Vector" d="M29.0044 55.088L29.0249 57.1227L29.313 57.1425L29.5952 57.1624L29.5952 55.6363L29.5952 54.1036L29.9507 54.533C30.1382 54.7642 30.7017 55.4513 31.1982 56.0591C32.0371 57.0831 32.1172 57.1558 32.3252 57.1558L32.5469 57.1558L32.5469 55.1078L32.5469 53.0598L32.2783 53.0598L32.0103 53.0598L32.0103 54.5462C32.0103 55.3654 31.9897 56.0327 31.9629 56.0327C31.9297 56.0327 31.3662 55.3654 30.7017 54.5462C29.5146 53.0862 29.4878 53.0598 29.2393 53.0598L28.9912 53.0598L29.0044 55.088Z" fill="#18333E" fill-opacity="1.000000" fill-rule="nonzero"/>
	<path id="Vector" d="M46.4956 55.1111L46.4956 57.1624L47.8633 57.1624L49.2305 57.1624L49.2305 56.8976L49.2305 56.633L48.1562 56.633L47.0815 56.633L47.0815 54.8464L47.0815 53.0598L46.7886 53.0598L46.4956 53.0598L46.4956 55.1111Z" fill="#18333E" fill-opacity="1.000000" fill-rule="nonzero"/>
	<path id="Vector" d="M50.5981 54.4668C50.5981 56.0455 50.6484 56.3163 50.9941 56.6928C51.2773 57.0033 51.6479 57.1552 52.1196 57.1618C52.9185 57.175 53.3584 56.9373 53.6475 56.3295L53.8364 55.9332L53.855 54.4932L53.8804 53.0598L53.5908 53.0598L53.3018 53.0598L53.3018 54.4271C53.3018 55.6161 53.2827 55.8341 53.1821 56.0653C53.0249 56.4286 52.874 56.5541 52.478 56.64C51.8115 56.7787 51.2959 56.4617 51.1704 55.8341C51.1328 55.6492 51.1011 54.949 51.1011 54.2818L51.1011 53.0598L50.8496 53.0598L50.5981 53.0598L50.5981 54.4668Z" fill="#18333E" fill-opacity="1.000000" fill-rule="nonzero"/>
	<path id="Vector" d="M55.7944 55.1111L55.7944 57.1624L56.7754 57.1624C58.1943 57.1624 58.6943 57.0305 58.9473 56.5885C59.1074 56.3181 59.1196 55.8234 58.978 55.5332C58.8853 55.3287 58.583 55.0517 58.4595 55.0517C58.4229 55.0517 58.4907 54.9528 58.6016 54.834C58.9409 54.4713 58.9658 53.8711 58.6631 53.5149C58.3364 53.1389 58.2065 53.106 56.9541 53.0862L55.7944 53.0598L55.7944 55.1111ZM57.9536 53.6402C58.2378 53.7656 58.3242 53.8975 58.3242 54.2075C58.3179 54.689 57.9907 54.8538 57.0283 54.8538L56.3496 54.8538L56.3496 54.1943L56.3496 53.5347L57.0283 53.5347C57.5098 53.5347 57.7749 53.5677 57.9536 53.6402ZM58.1758 55.4145C58.4595 55.5398 58.5894 55.8564 58.5029 56.1994C58.4043 56.5687 58.2007 56.6479 57.2012 56.6874L56.3496 56.7205L56.3496 56.0147L56.3496 55.3156L57.1519 55.3156C57.7192 55.3156 58.0215 55.3419 58.1758 55.4145Z" fill="#18333E" fill-opacity="1.000000" fill-rule="nonzero"/>
	<path id="Vector" d="M29.5078 63.1998C29.2285 63.266 29.1699 63.8676 29.4365 63.9639C29.4946 63.9819 33.4888 64 38.3203 64L47.0933 64L47.2104 63.8737C47.353 63.7052 47.353 63.5067 47.1973 63.3322L47.0742 63.1877L38.3462 63.1818C33.5537 63.1757 29.5728 63.1818 29.5078 63.1998Z" fill="#18333E" fill-opacity="1.000000" fill-rule="nonzero"/>
</svg>
