<svg width="22.000000" height="22.000000" viewBox="0 0 22 22" fill="none" xmlns="http://www.w3.org/2000/svg" xmlns:xlink="http://www.w3.org/1999/xlink">
	<desc>
			Created with Pixso.
	</desc>
	<defs/>
	<path id="Vector" d="M18.5073 12.8883L17.4717 11.165C17.2422 10.7891 17.0405 10.065 17.0405 9.625L17.0405 7.91083C17.0405 4.58331 14.3364 1.87915 11.0181 1.87915C7.69043 1.88831 4.98633 4.58331 4.98633 7.91083L4.98633 9.61584C4.98633 10.0558 4.78467 10.78 4.56494 11.1558L3.52881 12.8792C3.13477 13.5483 3.04297 14.3091 3.29053 14.9692C3.53809 15.6383 4.09717 16.17 4.83057 16.4083C5.8208 16.7383 6.81982 16.9766 7.8374 17.1508C7.93799 17.1691 8.03906 17.1783 8.13965 17.1967C8.26807 17.215 8.40576 17.2333 8.54297 17.2516C8.78125 17.2883 9.02002 17.3158 9.26709 17.3342C9.84473 17.3892 10.4316 17.4166 11.0181 17.4166C11.5957 17.4166 12.1733 17.3892 12.7412 17.3342C12.9521 17.3158 13.1631 17.2975 13.3647 17.27C13.5298 17.2516 13.6948 17.2333 13.8599 17.2058C13.9604 17.1967 14.0615 17.1783 14.1621 17.16C15.189 16.995 16.2065 16.7383 17.1963 16.4083C17.9023 16.17 18.4429 15.6383 18.6997 14.96C18.9565 14.2725 18.8833 13.5208 18.5073 12.8883ZM11.6875 9.16663C11.6875 9.55164 11.3755 9.86334 10.9907 9.86334C10.6055 9.86334 10.2939 9.55164 10.2939 9.16663L10.2939 6.32501C10.2939 5.94 10.6055 5.6283 10.9907 5.6283C11.3755 5.6283 11.6875 5.94 11.6875 6.32501L11.6875 9.16663Z" fill="#18333E" fill-opacity="1.000000" fill-rule="nonzero"/>
	<path id="Vector" d="M13.5942 18.3425C13.209 19.4058 12.1919 20.1666 11 20.1666C10.2759 20.1666 9.56104 19.8733 9.05664 19.3508C8.76318 19.0758 8.54346 18.7092 8.41504 18.3333C8.53418 18.3516 8.65332 18.3608 8.78174 18.3792C8.99268 18.4066 9.2124 18.4341 9.43262 18.4525C9.95508 18.4983 10.4868 18.5258 11.0186 18.5258C11.541 18.5258 12.0635 18.4983 12.5767 18.4525C12.769 18.4341 12.9619 18.425 13.145 18.3975C13.2915 18.3792 13.4385 18.3608 13.5942 18.3425Z" fill="#18333E" fill-opacity="1.000000" fill-rule="nonzero"/>
	<g opacity="0.000000"/>
</svg>
